<?xml version="1.0" standalone="no"?>
<!DOCTYPE svg PUBLIC "-//W3C//DTD SVG 20010904//EN"
 "http://www.w3.org/TR/2001/REC-SVG-20010904/DTD/svg10.dtd">
<svg version="1.0" xmlns="http://www.w3.org/2000/svg"
 width="256.000000pt" height="256.000000pt" viewBox="0 0 256.000000 256.000000"
 preserveAspectRatio="xMidYMid meet">
<metadata>
Created by potrace 1.11, written by Peter Selinger 2001-2013
</metadata>
<g transform="translate(0.000000,256.000000) scale(0.100000,-0.100000)"
fill="#000000" stroke="none">
<path d="M2478 2515 c-2 -2 -41 -5 -88 -9 -47 -3 -96 -8 -110 -11 -13 -3 -42
-7 -64 -11 -22 -3 -43 -7 -46 -9 -3 -2 -25 -6 -48 -10 -23 -3 -60 -12 -82 -20
-22 -8 -43 -14 -45 -14 -8 1 -168 -53 -180 -60 -5 -3 -12 -6 -15 -6 -39 -6
-237 -124 -320 -191 -107 -86 -317 -311 -519 -556 l-64 -78 -216 0 c-119 0
-225 -3 -236 -6 -11 -3 -42 -33 -70 -66 -27 -34 -60 -73 -72 -87 -157 -188
-157 -188 -143 -225 5 -14 12 -26 14 -26 3 0 58 -14 123 -31 111 -29 141 -37
170 -43 20 -4 26 -15 16 -28 -5 -7 -10 -29 -12 -48 -2 -20 -26 -74 -58 -127
-59 -101 -65 -130 -39 -183 34 -73 191 -234 277 -288 64 -39 87 -35 190 26 52
30 112 58 134 62 22 4 47 10 57 14 16 7 22 -2 33 -53 3 -12 7 -30 10 -41 3
-11 7 -28 9 -37 17 -72 49 -179 55 -186 15 -15 49 -15 75 1 56 36 304 248 315
270 7 15 11 101 11 240 l0 218 187 159 c398 340 527 490 635 741 42 97 91 257
113 374 3 14 7 34 9 45 15 79 31 244 27 291 -1 9 -25 15 -33 9z m-83 -158 c-6
-55 -13 -106 -20 -137 -3 -14 -7 -37 -10 -52 -3 -14 -21 -82 -40 -149 -41
-140 -114 -300 -189 -409 -108 -158 -369 -393 -1020 -919 -108 -87 -140 -108
-158 -104 -91 23 -341 270 -372 369 -5 16 25 59 146 210 473 588 731 872 888
976 116 76 284 157 360 173 8 2 15 4 15 5 0 1 7 3 15 5 8 2 51 13 95 24 79 20
100 24 180 37 22 3 41 7 42 7 1 1 17 3 37 4 l36 2 -5 -42z m-1605 -944 c-30
-51 -218 -268 -231 -266 -14 2 -136 31 -154 37 -5 1 -27 6 -48 11 -20 4 -40
11 -42 16 -3 4 34 55 82 113 l88 105 158 1 c148 0 157 -1 147 -17z m-140 -727
c36 -37 91 -88 123 -113 l58 -45 -46 -29 c-25 -16 -50 -29 -56 -29 -44 0 -259
215 -259 259 0 5 12 30 28 55 l27 46 30 -37 c17 -21 59 -69 95 -107z m780 -44
l0 -159 -92 -74 c-51 -41 -99 -80 -106 -86 -7 -7 -16 -13 -20 -13 -4 0 -21 59
-38 132 l-30 131 80 66 c45 36 107 87 139 113 32 26 60 48 63 48 2 0 4 -71 4
-158z"/>
<path d="M1657 1985 c-156 -54 -221 -243 -132 -385 104 -165 360 -150 446 27
63 130 4 294 -126 349 -50 22 -139 26 -188 9z m146 -110 c114 -48 113 -223 -3
-269 -54 -21 -85 -20 -130 5 -104 59 -103 203 3 262 39 21 83 22 130 2z"/>
<path d="M295 587 c-11 -8 -51 -31 -90 -52 -38 -20 -85 -51 -103 -68 -33 -32
-70 -97 -77 -139 -3 -13 -8 -34 -11 -48 -3 -14 -8 -83 -11 -154 l-5 -129 123
6 c159 8 191 13 264 47 75 34 112 74 165 175 23 44 46 85 51 91 10 12 -5 27
-55 58 -33 21 -27 28 -90 -94 -49 -95 -65 -112 -117 -134 -48 -20 -81 -27
-167 -33 -58 -4 -71 -3 -68 8 3 8 7 45 10 83 11 139 40 184 161 246 117 61
121 66 88 113 -29 40 -39 44 -68 24z"/>
</g>
</svg>
